<svg xmlns="http://www.w3.org/2000/svg" width="18" height="18" viewBox="0 0 18 18">
  <path fill="#979797" fill-rule="evenodd" d="M9.01853853,7 C7.91853853,7 7.01853853,7.9 7.01853853,9 C7.01853853,10.1 7.91853853,11 9.01853853,11 C10.1185385,11 11.0185385,10.1 11.0185385,9 C11.0185385,7.9 10.1185385,7 9.01853853,7 Z M14.2685385,9 C14.2685385,9.23 14.2485385,9.46 14.2185385,9.68 L15.6985385,10.84 C15.8285385,10.95 15.8685385,11.14 15.7785385,11.29 L14.3785385,13.71 C14.2885385,13.86 14.1085385,13.92 13.9485385,13.86 L12.2085385,13.16 C11.8485385,13.44 11.4485385,13.67 11.0285385,13.85 L10.7685385,15.7 C10.7385385,15.87 10.5885385,16 10.4185385,16 L7.61853853,16 C7.44853853,16 7.29853853,15.87 7.26853853,15.71 L7.00853853,13.86 C6.57853853,13.68 6.18853853,13.45 5.82853853,13.17 L4.08853853,13.87 C3.92853853,13.93 3.74853853,13.87 3.65853853,13.72 L2.25853853,11.3 C2.16853853,11.15 2.20853853,10.96 2.33853853,10.85 L3.81853853,9.69 C3.78853853,9.46 3.76853853,9.23 3.76853853,9 C3.76853853,8.77 3.78853853,8.54 3.81853853,8.32 L2.33853853,7.16 C2.20853853,7.05 2.16853853,6.86 2.25853853,6.71 L3.65853853,4.29 C3.74853853,4.14 3.92853853,4.08 4.08853853,4.14 L5.82853853,4.84 C6.18853853,4.56 6.58853853,4.33 7.00853853,4.15 L7.26853853,2.3 C7.29853853,2.13 7.44853853,2 7.61853853,2 L10.4185385,2 C10.5885385,2 10.7385385,2.13 10.7685385,2.29 L11.0285385,4.14 C11.4585385,4.32 11.8485385,4.55 12.2085385,4.83 L13.9485385,4.13 C14.1085385,4.07 14.2885385,4.13 14.3785385,4.28 L15.7785385,6.7 C15.8685385,6.85 15.8285385,7.04 15.6985385,7.15 L14.2185385,8.31 C14.2485385,8.54 14.2685385,8.77 14.2685385,9 Z"/>
</svg>
